<svg width="39" height="28" viewBox="0 0 39 28" fill="none" xmlns="http://www.w3.org/2000/svg">
<path d="M16.5664 8.40234H12.3965L11.46 11H10.1064L13.9072 1.04688H15.0557L18.8633 11H17.5166L16.5664 8.40234ZM12.793 7.32227H16.1768L14.4814 2.66699L12.793 7.32227ZM27.4424 7.8418C27.3193 8.89453 26.9297 9.70801 26.2734 10.2822C25.6217 10.8519 24.7536 11.1367 23.6689 11.1367C22.4932 11.1367 21.5498 10.7152 20.8389 9.87207C20.1325 9.02897 19.7793 7.90104 19.7793 6.48828V5.53125C19.7793 4.60612 19.9434 3.79264 20.2715 3.09082C20.6042 2.389 21.0736 1.85124 21.6797 1.47754C22.2858 1.09928 22.9876 0.910156 23.7852 0.910156C24.8424 0.910156 25.6901 1.20638 26.3281 1.79883C26.9661 2.38672 27.3376 3.20247 27.4424 4.24609H26.123C26.0091 3.45312 25.7607 2.87891 25.3779 2.52344C24.9997 2.16797 24.4688 1.99023 23.7852 1.99023C22.9466 1.99023 22.2881 2.30013 21.8096 2.91992C21.3356 3.53971 21.0986 4.42155 21.0986 5.56543V6.5293C21.0986 7.60938 21.3242 8.46842 21.7754 9.10645C22.2266 9.74447 22.8577 10.0635 23.6689 10.0635C24.3981 10.0635 24.9564 9.89941 25.3438 9.57129C25.7357 9.23861 25.9954 8.66211 26.123 7.8418H27.4424ZM1.75977 23.1035V27H0.447266V17.0469H4.11816C5.20736 17.0469 6.05957 17.3249 6.6748 17.8809C7.2946 18.4368 7.60449 19.1729 7.60449 20.0889C7.60449 21.055 7.30143 21.8001 6.69531 22.3242C6.09375 22.8438 5.23014 23.1035 4.10449 23.1035H1.75977ZM1.75977 22.0303H4.11816C4.81999 22.0303 5.35775 21.8662 5.73145 21.5381C6.10514 21.2054 6.29199 20.7269 6.29199 20.1025C6.29199 19.5101 6.10514 19.0361 5.73145 18.6807C5.35775 18.3252 4.84505 18.1406 4.19336 18.127H1.75977V22.0303ZM8.65039 23.2334C8.65039 22.5088 8.79167 21.8571 9.07422 21.2783C9.36133 20.6995 9.75781 20.2529 10.2637 19.9385C10.7741 19.624 11.3551 19.4668 12.0068 19.4668C13.014 19.4668 13.8275 19.8154 14.4473 20.5127C15.0716 21.21 15.3838 22.1374 15.3838 23.2949V23.3838C15.3838 24.1038 15.2448 24.751 14.9668 25.3252C14.6934 25.8949 14.2992 26.3392 13.7842 26.6582C13.2738 26.9772 12.6859 27.1367 12.0205 27.1367C11.0179 27.1367 10.2044 26.7881 9.58008 26.0908C8.96029 25.3936 8.65039 24.4707 8.65039 23.3223V23.2334ZM9.92188 23.3838C9.92188 24.2041 10.111 24.8626 10.4893 25.3594C10.8721 25.8561 11.3825 26.1045 12.0205 26.1045C12.6631 26.1045 13.1735 25.8538 13.5518 25.3525C13.93 24.8467 14.1191 24.1403 14.1191 23.2334C14.1191 22.4222 13.9255 21.766 13.5381 21.2646C13.1553 20.7588 12.6449 20.5059 12.0068 20.5059C11.3825 20.5059 10.8789 20.7542 10.4961 21.251C10.1133 21.7477 9.92188 22.4587 9.92188 23.3838ZM23.5186 25.2568L24.9404 19.6035H26.2051L24.0518 27H23.0264L21.2285 21.3945L19.4785 27H18.4531L16.3066 19.6035H17.5645L19.0205 25.1406L20.7432 19.6035H21.7617L23.5186 25.2568ZM30.5664 27.1367C29.5638 27.1367 28.748 26.8086 28.1191 26.1523C27.4902 25.4915 27.1758 24.6097 27.1758 23.5068V23.2744C27.1758 22.5407 27.3148 21.8867 27.5928 21.3125C27.8753 20.7337 28.2673 20.2826 28.7686 19.959C29.2744 19.6309 29.8213 19.4668 30.4092 19.4668C31.3708 19.4668 32.1182 19.7835 32.6514 20.417C33.1846 21.0505 33.4512 21.9574 33.4512 23.1377V23.6641H28.4404C28.4587 24.3932 28.6706 24.9834 29.0762 25.4346C29.4863 25.8812 30.0059 26.1045 30.6348 26.1045C31.0814 26.1045 31.4596 26.0133 31.7695 25.8311C32.0794 25.6488 32.3506 25.4072 32.583 25.1064L33.3555 25.708C32.7357 26.6605 31.806 27.1367 30.5664 27.1367ZM30.4092 20.5059C29.8988 20.5059 29.4704 20.6927 29.124 21.0664C28.7777 21.4355 28.5635 21.9551 28.4814 22.625H32.1865V22.5293C32.1501 21.8867 31.9769 21.39 31.667 21.0391C31.3571 20.6836 30.9378 20.5059 30.4092 20.5059ZM38.4961 20.7383C38.3047 20.7064 38.0973 20.6904 37.874 20.6904C37.0446 20.6904 36.4818 21.0436 36.1855 21.75V27H34.9209V19.6035H36.1514L36.1719 20.458C36.5866 19.7972 37.1745 19.4668 37.9355 19.4668C38.1816 19.4668 38.3685 19.4987 38.4961 19.5625V20.7383Z" fill="black"/>
</svg>
