<svg width="40" height="24" viewBox="0 0 40 24" fill="none" xmlns="http://www.w3.org/2000/svg">
<path d="M14.7969 5.19727C13.832 4.91992 13.1289 4.58008 12.6875 4.17773C12.25 3.77148 12.0312 3.27148 12.0312 2.67773C12.0312 2.00586 12.2988 1.45117 12.834 1.01367C13.373 0.572266 14.0723 0.351562 14.9316 0.351562C15.5176 0.351562 16.0391 0.464844 16.4961 0.691406C16.957 0.917969 17.3125 1.23047 17.5625 1.62891C17.8164 2.02734 17.9434 2.46289 17.9434 2.93555H16.8125C16.8125 2.41992 16.6484 2.01562 16.3203 1.72266C15.9922 1.42578 15.5293 1.27734 14.9316 1.27734C14.377 1.27734 13.9434 1.40039 13.6309 1.64648C13.3223 1.88867 13.168 2.22656 13.168 2.66016C13.168 3.00781 13.3145 3.30273 13.6074 3.54492C13.9043 3.7832 14.4062 4.00195 15.1133 4.20117C15.8242 4.40039 16.3789 4.62109 16.7773 4.86328C17.1797 5.10156 17.4766 5.38086 17.668 5.70117C17.8633 6.02148 17.9609 6.39844 17.9609 6.83203C17.9609 7.52344 17.6914 8.07812 17.1523 8.49609C16.6133 8.91016 15.8926 9.11719 14.9902 9.11719C14.4043 9.11719 13.8574 9.00586 13.3496 8.7832C12.8418 8.55664 12.4492 8.24805 12.1719 7.85742C11.8984 7.4668 11.7617 7.02344 11.7617 6.52734H12.8926C12.8926 7.04297 13.082 7.45117 13.4609 7.75195C13.8438 8.04883 14.3535 8.19727 14.9902 8.19727C15.584 8.19727 16.0391 8.07617 16.3555 7.83398C16.6719 7.5918 16.8301 7.26172 16.8301 6.84375C16.8301 6.42578 16.6836 6.10352 16.3906 5.87695C16.0977 5.64648 15.5664 5.41992 14.7969 5.19727ZM21.8691 9.11719C21.0098 9.11719 20.3105 8.83594 19.7715 8.27344C19.2324 7.70703 18.9629 6.95117 18.9629 6.00586V5.80664C18.9629 5.17773 19.082 4.61719 19.3203 4.125C19.5625 3.62891 19.8984 3.24219 20.3281 2.96484C20.7617 2.68359 21.2305 2.54297 21.7344 2.54297C22.5586 2.54297 23.1992 2.81445 23.6562 3.35742C24.1133 3.90039 24.3418 4.67773 24.3418 5.68945V6.14062H20.0469C20.0625 6.76562 20.2441 7.27148 20.5918 7.6582C20.9434 8.04102 21.3887 8.23242 21.9277 8.23242C22.3105 8.23242 22.6348 8.1543 22.9004 7.99805C23.166 7.8418 23.3984 7.63477 23.5977 7.37695L24.2598 7.89258C23.7285 8.70898 22.9316 9.11719 21.8691 9.11719ZM21.7344 3.43359C21.2969 3.43359 20.9297 3.59375 20.6328 3.91406C20.3359 4.23047 20.1523 4.67578 20.082 5.25H23.2578V5.16797C23.2266 4.61719 23.0781 4.19141 22.8125 3.89062C22.5469 3.58594 22.1875 3.43359 21.7344 3.43359ZM27.0723 1.125V2.66016H28.2559V3.49805H27.0723V7.42969C27.0723 7.68359 27.125 7.875 27.2305 8.00391C27.3359 8.12891 27.5156 8.19141 27.7695 8.19141C27.8945 8.19141 28.0664 8.16797 28.2852 8.12109V9C28 9.07812 27.7227 9.11719 27.4531 9.11719C26.9688 9.11719 26.6035 8.9707 26.3574 8.67773C26.1113 8.38477 25.9883 7.96875 25.9883 7.42969V3.49805H24.834V2.66016H25.9883V1.125H27.0723ZM3.64746 19.7549L5.67871 13.8906H6.7041L4.06738 21H3.2373L0.605469 13.8906H1.62598L3.64746 19.7549ZM7.05566 18.3096C7.05566 17.792 7.15658 17.3265 7.3584 16.9131C7.56348 16.4997 7.84668 16.1807 8.20801 15.9561C8.57259 15.7314 8.98763 15.6191 9.45312 15.6191C10.1725 15.6191 10.7536 15.8682 11.1963 16.3662C11.6423 16.8643 11.8652 17.5267 11.8652 18.3535V18.417C11.8652 18.9313 11.766 19.3936 11.5674 19.8037C11.3721 20.2106 11.0905 20.528 10.7227 20.7559C10.3581 20.9837 9.93815 21.0977 9.46289 21.0977C8.74674 21.0977 8.16569 20.8486 7.71973 20.3506C7.27702 19.8525 7.05566 19.1934 7.05566 18.373V18.3096ZM7.96387 18.417C7.96387 19.0029 8.09896 19.4733 8.36914 19.8281C8.64258 20.1829 9.00716 20.3604 9.46289 20.3604C9.92188 20.3604 10.2865 20.1813 10.5566 19.8232C10.8268 19.4619 10.9619 18.9574 10.9619 18.3096C10.9619 17.7301 10.8236 17.2614 10.5469 16.9033C10.2734 16.542 9.90885 16.3613 9.45312 16.3613C9.00716 16.3613 8.64746 16.5387 8.37402 16.8936C8.10059 17.2484 7.96387 17.7562 7.96387 18.417ZM13.9795 21H13.0762V13.5H13.9795V21ZM16.6553 14.4375V15.7168H17.6416V16.415H16.6553V19.6914C16.6553 19.903 16.6992 20.0625 16.7871 20.1699C16.875 20.2741 17.0247 20.3262 17.2363 20.3262C17.3405 20.3262 17.4837 20.3066 17.666 20.2676V21C17.4284 21.0651 17.1973 21.0977 16.9727 21.0977C16.569 21.0977 16.2646 20.9756 16.0596 20.7314C15.8545 20.4873 15.752 20.1406 15.752 19.6914V16.415H14.79V15.7168H15.752V14.4375H16.6553ZM21.9629 21C21.9108 20.8958 21.8685 20.7103 21.8359 20.4434C21.416 20.8796 20.9147 21.0977 20.332 21.0977C19.8112 21.0977 19.3831 20.9512 19.0479 20.6582C18.7158 20.362 18.5498 19.9876 18.5498 19.5352C18.5498 18.985 18.7581 18.5586 19.1748 18.2559C19.5947 17.9499 20.1839 17.7969 20.9424 17.7969H21.8213V17.3818C21.8213 17.0661 21.7269 16.8154 21.5381 16.6299C21.3493 16.4411 21.071 16.3467 20.7031 16.3467C20.3809 16.3467 20.1107 16.4281 19.8926 16.5908C19.6745 16.7536 19.5654 16.9505 19.5654 17.1816H18.6572C18.6572 16.918 18.75 16.6641 18.9355 16.4199C19.1243 16.1725 19.3783 15.9772 19.6973 15.834C20.0195 15.6908 20.3727 15.6191 20.7568 15.6191C21.3656 15.6191 21.8424 15.7721 22.1875 16.0781C22.5326 16.3809 22.7116 16.7992 22.7246 17.333V19.7646C22.7246 20.2497 22.7865 20.6354 22.9102 20.9219V21H21.9629ZM20.4639 20.3115C20.7471 20.3115 21.0156 20.2383 21.2695 20.0918C21.5234 19.9453 21.7074 19.7549 21.8213 19.5205V18.4365H21.1133C20.0065 18.4365 19.4531 18.7604 19.4531 19.4082C19.4531 19.6914 19.5475 19.9128 19.7363 20.0723C19.9251 20.2318 20.1676 20.3115 20.4639 20.3115ZM23.9258 18.3145C23.9258 17.4909 24.1162 16.8366 24.4971 16.3516C24.8779 15.8633 25.3825 15.6191 26.0107 15.6191C26.6553 15.6191 27.1582 15.847 27.5195 16.3027L27.5635 15.7168H28.3887V20.873C28.3887 21.5566 28.1852 22.0954 27.7783 22.4893C27.3747 22.8831 26.8311 23.0801 26.1475 23.0801C25.7666 23.0801 25.3939 22.9987 25.0293 22.8359C24.6647 22.6732 24.3864 22.4502 24.1943 22.167L24.6631 21.625C25.0505 22.1035 25.5241 22.3428 26.084 22.3428C26.5234 22.3428 26.8652 22.2191 27.1094 21.9717C27.3568 21.7243 27.4805 21.376 27.4805 20.9268V20.4727C27.1191 20.8893 26.626 21.0977 26.001 21.0977C25.3825 21.0977 24.8812 20.8486 24.4971 20.3506C24.1162 19.8525 23.9258 19.1738 23.9258 18.3145ZM24.834 18.417C24.834 19.0127 24.9561 19.4814 25.2002 19.8232C25.4443 20.1618 25.7861 20.3311 26.2256 20.3311C26.7952 20.3311 27.2135 20.0723 27.4805 19.5547V17.1426C27.2038 16.638 26.7887 16.3857 26.2354 16.3857C25.7959 16.3857 25.4525 16.5566 25.2051 16.8984C24.9577 17.2402 24.834 17.7464 24.834 18.417ZM31.9482 21.0977C31.2321 21.0977 30.6494 20.8633 30.2002 20.3945C29.751 19.9225 29.5264 19.2926 29.5264 18.5049V18.3389C29.5264 17.8148 29.6257 17.3477 29.8242 16.9375C30.026 16.5241 30.306 16.2018 30.6641 15.9707C31.0254 15.7363 31.416 15.6191 31.8359 15.6191C32.5228 15.6191 33.0566 15.8454 33.4375 16.2979C33.8184 16.7503 34.0088 17.3981 34.0088 18.2412V18.6172H30.4297C30.4427 19.138 30.5941 19.5596 30.8838 19.8818C31.1768 20.2008 31.5479 20.3604 31.9971 20.3604C32.3161 20.3604 32.5863 20.2952 32.8076 20.165C33.029 20.0348 33.2227 19.8623 33.3887 19.6475L33.9404 20.0771C33.4977 20.7575 32.8337 21.0977 31.9482 21.0977ZM31.8359 16.3613C31.4714 16.3613 31.1654 16.4948 30.918 16.7617C30.6706 17.0254 30.5176 17.3965 30.459 17.875H33.1055V17.8066C33.0794 17.3477 32.9557 16.9928 32.7344 16.7422C32.513 16.4883 32.2135 16.3613 31.8359 16.3613ZM38.1348 19.5986C38.1348 19.3545 38.042 19.1657 37.8564 19.0322C37.6742 18.8955 37.3535 18.7783 36.8945 18.6807C36.4388 18.583 36.0758 18.4658 35.8057 18.3291C35.5387 18.1924 35.3402 18.0296 35.21 17.8408C35.083 17.652 35.0195 17.4274 35.0195 17.167C35.0195 16.734 35.2018 16.3678 35.5664 16.0684C35.9342 15.7689 36.403 15.6191 36.9727 15.6191C37.5716 15.6191 38.0566 15.7738 38.4277 16.083C38.8021 16.3923 38.9893 16.7878 38.9893 17.2695H38.0811C38.0811 17.0221 37.9753 16.8089 37.7637 16.6299C37.5553 16.4508 37.2917 16.3613 36.9727 16.3613C36.6439 16.3613 36.3867 16.4329 36.2012 16.5762C36.0156 16.7194 35.9229 16.9066 35.9229 17.1377C35.9229 17.3558 36.0091 17.5202 36.1816 17.6309C36.3542 17.7415 36.665 17.8473 37.1143 17.9482C37.5667 18.0492 37.9329 18.1696 38.2129 18.3096C38.4928 18.4495 38.6995 18.6188 38.833 18.8174C38.9697 19.0127 39.0381 19.252 39.0381 19.5352C39.0381 20.0072 38.8493 20.3864 38.4717 20.6729C38.0941 20.9561 37.6042 21.0977 37.002 21.0977C36.5788 21.0977 36.2044 21.0228 35.8789 20.873C35.5534 20.7233 35.2979 20.515 35.1123 20.248C34.93 19.9779 34.8389 19.6865 34.8389 19.374H35.7422C35.7585 19.6768 35.8789 19.9176 36.1035 20.0967C36.3314 20.2725 36.6309 20.3604 37.002 20.3604C37.3438 20.3604 37.6172 20.292 37.8223 20.1553C38.0306 20.0153 38.1348 19.8298 38.1348 19.5986Z" fill="black"/>
</svg>
